<svg width="22" height="18" viewBox="0 0 22 18" fill="none" xmlns="http://www.w3.org/2000/svg">
<path d="M18.952 2.672C17.048 1.141 14.036 0.881997 13.908 0.870997C13.8096 0.863045 13.7112 0.885801 13.6263 0.936129C13.5414 0.986457 13.4742 1.06188 13.434 1.152C13.3781 1.2818 13.3297 1.41468 13.289 1.55C14.548 1.762 16.095 2.19 17.495 3.059C17.5924 3.13056 17.6591 3.2362 17.682 3.35484C17.7049 3.47348 17.6822 3.59638 17.6184 3.69901C17.5547 3.80165 17.4546 3.87647 17.3381 3.90853C17.2216 3.9406 17.0973 3.92755 16.99 3.872C14.584 2.38 11.578 2.305 11 2.305C10.422 2.305 7.415 2.38 5.011 3.872C4.95761 3.9085 4.89739 3.93382 4.83395 3.94642C4.77052 3.95902 4.70519 3.95864 4.6419 3.94531C4.57862 3.93198 4.51869 3.90597 4.46572 3.86886C4.41276 3.83174 4.36786 3.78428 4.33374 3.72934C4.29961 3.6744 4.27697 3.61312 4.26716 3.5492C4.25736 3.48527 4.26061 3.42002 4.2767 3.35738C4.2928 3.29474 4.32142 3.23601 4.36082 3.18473C4.40023 3.13345 4.44962 3.09068 4.506 3.059C5.906 2.191 7.452 1.762 8.712 1.55C8.638 1.314 8.572 1.164 8.567 1.152C8.52704 1.06152 8.45972 0.985851 8.37452 0.935625C8.28932 0.8854 8.19051 0.863147 8.092 0.871997C7.965 0.881997 4.953 1.141 3.023 2.694C2.015 3.625 0 9.073 0 13.783C0.000124922 13.8661 0.0218334 13.9478 0.063 14.02C1.454 16.463 5.248 17.103 6.113 17.131H6.128C6.20348 17.131 6.2779 17.1132 6.34516 17.079C6.41243 17.0447 6.47063 16.9951 6.515 16.934L7.39 15.732C5.031 15.122 3.826 14.087 3.756 14.026C3.66079 13.9422 3.60277 13.824 3.5947 13.6974C3.59071 13.6347 3.5991 13.5719 3.6194 13.5124C3.6397 13.453 3.6715 13.3981 3.713 13.351C3.7545 13.3039 3.80487 13.2653 3.86126 13.2377C3.91764 13.21 3.97891 13.1937 4.04159 13.1897C4.16818 13.1816 4.29279 13.2242 4.388 13.308C4.417 13.334 6.636 15.217 11 15.217C15.372 15.217 17.591 13.326 17.613 13.307C17.7093 13.2313 17.8308 13.1954 17.9528 13.2065C18.0747 13.2177 18.1877 13.2751 18.2686 13.367C18.3495 13.459 18.3922 13.5784 18.3878 13.7007C18.3834 13.8231 18.3323 13.9391 18.245 14.025C18.175 14.087 16.97 15.121 14.611 15.731L15.486 16.933C15.576 17.057 15.72 17.13 15.873 17.13H15.888C16.753 17.103 20.547 16.463 21.938 14.019C21.9784 13.9469 21.9997 13.8657 22 13.783C22 9.073 19.985 3.625 18.952 2.672ZM7.891 11.87C6.967 11.87 6.217 11.013 6.217 9.957C6.217 8.901 6.966 8.044 7.891 8.044C8.816 8.044 9.565 8.901 9.565 9.957C9.565 11.013 8.816 11.87 7.891 11.87ZM14.109 11.87C13.185 11.87 12.435 11.013 12.435 9.957C12.435 8.901 13.184 8.044 14.109 8.044C15.033 8.044 15.783 8.901 15.783 9.957C15.783 11.013 15.033 11.87 14.109 11.87Z" fill="white"/>
</svg>
