<svg width="24" height="24" viewBox="0 0 24 24" fill="none" xmlns="http://www.w3.org/2000/svg">
<path fill-rule="evenodd" clip-rule="evenodd" d="M7.13722 0H16.8208C20.7562 0 23.958 3.20174 23.958 7.13722V16.8208C23.958 20.7563 20.7563 23.958 16.8208 23.958H7.13722C3.20174 23.958 0 20.7563 0 16.8208V7.13722C0 3.20174 3.20174 0 7.13722 0ZM16.8208 21.5478C19.4314 21.5478 21.5478 19.4314 21.5478 16.8208V7.13722C21.5478 4.52652 19.4314 2.41017 16.8208 2.41017H7.13722C4.52657 2.41017 2.41017 4.52652 2.41017 7.13722V16.8208C2.41017 19.4314 4.52657 21.5478 7.13722 21.5478H16.8208Z" fill="white"/>
<path fill-rule="evenodd" clip-rule="evenodd" d="M5.78261 11.979C5.78261 8.56232 8.5623 5.78262 11.979 5.78262C15.3957 5.78262 18.1754 8.56228 18.1754 11.979C18.1754 15.3957 15.3957 18.1754 11.979 18.1754C8.5623 18.1754 5.78261 15.3956 5.78261 11.979ZM8.19278 11.979C8.19278 14.0701 9.88791 15.7652 11.979 15.7652C14.07 15.7652 15.7652 14.0701 15.7652 11.979C15.7652 9.88793 14.0701 8.1928 11.979 8.1928C9.88796 8.1928 8.19278 9.88793 8.19278 11.979Z" fill="white"/>
<circle cx="18.1872" cy="5.82922" r="1.48474" fill="white"/>
</svg>
